<svg width="40" height="40" viewBox="0 0 40 40" fill="none" xmlns="http://www.w3.org/2000/svg">
<path d="M9.25 29.375C11 28.1528 12.7361 27.2153 14.4583 26.5625C16.1806 25.9097 18.0278 25.5833 20 25.5833C21.9722 25.5833 23.8264 25.9097 25.5625 26.5625C27.2986 27.2153 29.0417 28.1528 30.7917 29.375C32.0139 27.875 32.8819 26.3611 33.3958 24.8333C33.9097 23.3056 34.1667 21.6945 34.1667 20C34.1667 15.9722 32.8125 12.6042 30.1042 9.89584C27.3958 7.18751 24.0278 5.83334 20 5.83334C15.9722 5.83334 12.6042 7.18751 9.89583 9.89584C7.18749 12.6042 5.83333 15.9722 5.83333 20C5.83333 21.6945 6.09722 23.3056 6.62499 24.8333C7.15277 26.3611 8.02777 27.875 9.25 29.375ZM20 21.25C18.3889 21.25 17.0347 20.7014 15.9375 19.6042C14.8403 18.507 14.2917 17.1528 14.2917 15.5417C14.2917 13.9306 14.8403 12.5764 15.9375 11.4792C17.0347 10.382 18.3889 9.83334 20 9.83334C21.6111 9.83334 22.9653 10.382 24.0625 11.4792C25.1597 12.5764 25.7083 13.9306 25.7083 15.5417C25.7083 17.1528 25.1597 18.507 24.0625 19.6042C22.9653 20.7014 21.6111 21.25 20 21.25ZM20 36.6667C17.7222 36.6667 15.5694 36.2292 13.5417 35.3542C11.5139 34.4792 9.74305 33.2847 8.22916 31.7708C6.71527 30.257 5.52083 28.4861 4.64583 26.4583C3.77083 24.4306 3.33333 22.2778 3.33333 20C3.33333 17.6945 3.77083 15.5347 4.64583 13.5208C5.52083 11.507 6.71527 9.74307 8.22916 8.22918C9.74305 6.71529 11.5139 5.52084 13.5417 4.64584C15.5694 3.77084 17.7222 3.33334 20 3.33334C22.3056 3.33334 24.4653 3.77084 26.4792 4.64584C28.493 5.52084 30.2569 6.71529 31.7708 8.22918C33.2847 9.74307 34.4792 11.507 35.3542 13.5208C36.2292 15.5347 36.6667 17.6945 36.6667 20C36.6667 22.2778 36.2292 24.4306 35.3542 26.4583C34.4792 28.4861 33.2847 30.257 31.7708 31.7708C30.2569 33.2847 28.493 34.4792 26.4792 35.3542C24.4653 36.2292 22.3056 36.6667 20 36.6667ZM20 34.1667C21.5278 34.1667 23.0208 33.9445 24.4792 33.5C25.9375 33.0556 27.375 32.2778 28.7917 31.1667C27.375 30.1667 25.9306 29.4028 24.4583 28.875C22.9861 28.3472 21.5 28.0833 20 28.0833C18.5 28.0833 17.0139 28.3472 15.5417 28.875C14.0694 29.4028 12.625 30.1667 11.2083 31.1667C12.625 32.2778 14.0625 33.0556 15.5208 33.5C16.9792 33.9445 18.4722 34.1667 20 34.1667ZM20 18.75C20.9444 18.75 21.7153 18.4514 22.3125 17.8542C22.9097 17.257 23.2083 16.4861 23.2083 15.5417C23.2083 14.5972 22.9097 13.8264 22.3125 13.2292C21.7153 12.632 20.9444 12.3333 20 12.3333C19.0556 12.3333 18.2847 12.632 17.6875 13.2292C17.0903 13.8264 16.7917 14.5972 16.7917 15.5417C16.7917 16.4861 17.0903 17.257 17.6875 17.8542C18.2847 18.4514 19.0556 18.75 20 18.75Z" fill="#003365"/>
</svg>
