<svg width="28" height="28" viewBox="0 0 28 28" fill="none" xmlns="http://www.w3.org/2000/svg">
<path d="M6.47499 20.5625C7.69999 19.707 8.91527 19.0507 10.1208 18.5938C11.3264 18.1368 12.6194 17.9083 14 17.9083C15.3805 17.9083 16.6785 18.1368 17.8937 18.5938C19.109 19.0507 20.3292 19.707 21.5542 20.5625C22.4097 19.5125 23.0174 18.4528 23.3771 17.3833C23.7368 16.3139 23.9167 15.1861 23.9167 14C23.9167 11.1806 22.9687 8.82293 21.0729 6.92709C19.1771 5.03126 16.8194 4.08334 14 4.08334C11.1806 4.08334 8.82291 5.03126 6.92708 6.92709C5.03124 8.82293 4.08333 11.1806 4.08333 14C4.08333 15.1861 4.26805 16.3139 4.63749 17.3833C5.00694 18.4528 5.61944 19.5125 6.47499 20.5625ZM14 14.875C12.8722 14.875 11.9243 14.491 11.1562 13.7229C10.3882 12.9549 10.0042 12.007 10.0042 10.8792C10.0042 9.7514 10.3882 8.80348 11.1562 8.03543C11.9243 7.26737 12.8722 6.88334 14 6.88334C15.1278 6.88334 16.0757 7.26737 16.8437 8.03543C17.6118 8.80348 17.9958 9.7514 17.9958 10.8792C17.9958 12.007 17.6118 12.9549 16.8437 13.7229C16.0757 14.491 15.1278 14.875 14 14.875ZM14 25.6667C12.4056 25.6667 10.8986 25.3604 9.47916 24.7479C8.05972 24.1354 6.82013 23.2993 5.76041 22.2396C4.70069 21.1799 3.86458 19.9403 3.25208 18.5208C2.63958 17.1014 2.33333 15.5945 2.33333 14C2.33333 12.3861 2.63958 10.8743 3.25208 9.46459C3.86458 8.05487 4.70069 6.82015 5.76041 5.76043C6.82013 4.7007 8.05972 3.86459 9.47916 3.25209C10.8986 2.63959 12.4056 2.33334 14 2.33334C15.6139 2.33334 17.1257 2.63959 18.5354 3.25209C19.9451 3.86459 21.1799 4.7007 22.2396 5.76043C23.2993 6.82015 24.1354 8.05487 24.7479 9.46459C25.3604 10.8743 25.6667 12.3861 25.6667 14C25.6667 15.5945 25.3604 17.1014 24.7479 18.5208C24.1354 19.9403 23.2993 21.1799 22.2396 22.2396C21.1799 23.2993 19.9451 24.1354 18.5354 24.7479C17.1257 25.3604 15.6139 25.6667 14 25.6667ZM14 23.9167C15.0694 23.9167 16.1146 23.7611 17.1354 23.45C18.1562 23.1389 19.1625 22.5945 20.1542 21.8167C19.1625 21.1167 18.1514 20.582 17.1208 20.2125C16.0903 19.8431 15.05 19.6583 14 19.6583C12.95 19.6583 11.9097 19.8431 10.8792 20.2125C9.84861 20.582 8.83749 21.1167 7.84583 21.8167C8.83749 22.5945 9.84374 23.1389 10.8646 23.45C11.8854 23.7611 12.9306 23.9167 14 23.9167ZM14 13.125C14.6611 13.125 15.2007 12.916 15.6187 12.4979C16.0368 12.0799 16.2458 11.5403 16.2458 10.8792C16.2458 10.2181 16.0368 9.67848 15.6187 9.26043C15.2007 8.84237 14.6611 8.63334 14 8.63334C13.3389 8.63334 12.7993 8.84237 12.3812 9.26043C11.9632 9.67848 11.7542 10.2181 11.7542 10.8792C11.7542 11.5403 11.9632 12.0799 12.3812 12.4979C12.7993 12.916 13.3389 13.125 14 13.125Z" fill="#003365"/>
</svg>
